<svg width="657.9px" height="121.4px" xmlns="http://www.w3.org/2000/svg" viewBox="-78.94687499999998 14.300000000000004 657.89375 121.39999999999999" style="background: #e00" preserveAspectRatio="xMidYMid"><defs><filter id="editing-lego" x="-100%" y="-100%" width="300%" height="300%"><feFlood flood-color="#000" result="f1"></feFlood><feFlood flood-color="#ff0" result="f2"></feFlood><feMorphology operator="dilate" radius="3" in="SourceAlpha"></feMorphology><feConvolveMatrix order="5,5" divisor="1" result="cm1" kernelMatrix="0 1 1 1 0  1 0 0 0 1  1 0 0 0 1  1 0 0 0 1  0 1 1 1 0"></feConvolveMatrix><feComposite operator="in" in="f1" in2="cm1" result="c1"></feComposite><feMorphology operator="dilate" radius="3"></feMorphology><feConvolveMatrix order="5,5" divisor="1" result="cm2" kernelMatrix="0 1 1 1 0  1 0 0 0 1  1 0 0 0 1  1 0 0 0 1  0 1 1 1 0"></feConvolveMatrix><feComposite operator="in" in="f2" in2="cm2" result="c2"></feComposite><feMerge><feMergeNode in="c2"></feMergeNode><feMergeNode in="c1"></feMergeNode><feMergeNode in="SourceGraphic"></feMergeNode></feMerge></filter></defs><g filter="url(#editing-lego)"><g transform="matrix(1.4,0,0,1.6,-53.9,189)"><path d="M 6.3 -57.4 L -7.7 -57.4 L 0.4 -99.7 L 14.5 -99.7 L 6.3 -57.4 Z M 62 -56.2 L 62 -56.2 L 62 -56.2 Q 54.3 -56.2 54.3 -62.2 L 54.3 -62.2 L 54.3 -62.2 Q 54.3 -64.8 55.4 -69.9 L 55.4 -69.9 L 55.4 -69.9 Q 56.5 -75 56.9 -77 L 56.9 -77 L 56.9 -77 Q 57.8 -81.7 57.8 -83.2 L 57.8 -83.2 L 57.8 -83.2 Q 57.8 -86.4 55.3 -86.4 L 55.3 -86.4 L 55.3 -86.4 Q 53.7 -86.4 52.2 -84.2 L 52.2 -84.2 L 52.2 -84.2 Q 50.7 -82 50 -77.6 L 50 -77.6 L 46 -57.4 L 33.5 -56.2 L 37 -73.6 L 37 -73.6 Q 37.5 -76.4 38.1 -79.7 L 38.1 -79.7 L 38.1 -79.7 Q 38.6 -83 38.6 -83.5 L 38.6 -83.5 L 38.6 -83.5 Q 38.6 -86.4 36.4 -86.4 L 36.4 -86.4 L 36.4 -86.4 Q 34.9 -86.4 33.3 -84.3 L 33.3 -84.3 L 33.3 -84.3 Q 31.7 -82.1 30.8 -77.6 L 30.8 -77.6 L 26.9 -57.4 L 14.3 -56.2 L 21 -90.1 L 31.5 -91.4 L 30.4 -84.9 L 30.4 -84.9 Q 32 -88.3 35.1 -89.9 L 35.1 -89.9 L 35.1 -89.9 Q 38.2 -91.4 43 -91.4 L 43 -91.4 L 43 -91.4 Q 45.7 -91.4 47.5 -90 L 47.5 -90 L 47.5 -90 Q 49.3 -88.7 49.9 -86.5 L 49.9 -86.5 L 49.9 -86.5 Q 51 -88.7 53.8 -90 L 53.8 -90 L 53.8 -90 Q 56.6 -91.4 60 -91.4 L 60 -91.4 L 60 -91.4 Q 63.4 -91.4 65.1 -90.6 L 65.1 -90.6 L 65.1 -90.6 Q 66.8 -89.9 67.8 -88.7 L 67.8 -88.7 L 67.8 -88.7 Q 69.5 -86.4 69.5 -82.3 L 69.5 -82.3 L 69.5 -82.3 Q 69.5 -78.3 67.8 -69.9 L 67.8 -69.9 L 67.8 -69.9 Q 66.9 -65.8 66.9 -64.3 L 66.9 -64.3 L 66.9 -64.3 Q 66.9 -62.8 67.8 -61.9 L 67.8 -61.9 L 67.8 -61.9 Q 68.7 -61 69.9 -60.9 L 69.9 -60.9 L 69.9 -60.9 Q 69.3 -58.7 67.1 -57.4 L 67.1 -57.4 L 67.1 -57.4 Q 64.9 -56.2 62 -56.2 Z M 77.6 -59.4 L 77.6 -59.4 L 77.6 -59.4 Q 76.1 -61 75.5 -63.6 L 75.5 -63.6 L 75.5 -63.6 Q 74.8 -66.3 74.8 -70.6 L 74.8 -70.6 L 74.8 -70.6 Q 74.8 -74.8 76.3 -78.7 L 76.3 -78.7 L 76.3 -78.7 Q 77.7 -82.7 80.4 -85.5 L 80.4 -85.5 L 80.4 -85.5 Q 85.9 -91.4 95 -91.4 L 95 -91.4 L 95 -91.4 Q 98.3 -91.4 100.7 -90.3 L 100.7 -90.3 L 111.6 -91.4 L 106.9 -66.4 L 106.9 -66.4 Q 106.7 -65.6 106.7 -64.2 L 106.7 -64.2 L 106.7 -64.2 Q 106.7 -62.8 107.5 -61.9 L 107.5 -61.9 L 107.5 -61.9 Q 108.4 -61 109.7 -60.9 L 109.7 -60.9 L 109.7 -60.9 Q 109 -58.7 106.7 -57.4 L 106.7 -57.4 L 106.7 -57.4 Q 104.4 -56.2 101.7 -56.2 L 101.7 -56.2 L 101.7 -56.2 Q 99.1 -56.2 97.4 -57.1 L 97.4 -57.1 L 97.4 -57.1 Q 95.6 -58.1 95.1 -59.8 L 95.1 -59.8 L 95.1 -59.8 Q 94.1 -58.2 91.9 -57.2 L 91.9 -57.2 L 91.9 -57.2 Q 89.7 -56.2 86.8 -56.2 L 86.8 -56.2 L 86.8 -56.2 Q 83.9 -56.2 81.5 -56.9 L 81.5 -56.9 L 81.5 -56.9 Q 79.1 -57.7 77.6 -59.4 Z M 91.1 -85.3 L 91.1 -85.3 L 91.1 -85.3 Q 90.4 -84.2 89.8 -82.2 L 89.8 -82.2 L 89.8 -82.2 Q 89.1 -80.3 88.1 -75.1 L 88.1 -75.1 L 88.1 -75.1 Q 87 -69.9 87 -66.1 L 87 -66.1 L 87 -66.1 Q 87 -62.4 87.6 -61.3 L 87.6 -61.3 L 87.6 -61.3 Q 88.2 -60.3 89.2 -60.3 L 89.2 -60.3 L 89.2 -60.3 Q 91.2 -60.3 92.7 -62.2 L 92.7 -62.2 L 92.7 -62.2 Q 94.3 -64.2 94.8 -67.6 L 94.8 -67.6 L 98.2 -86.4 L 98.2 -86.4 Q 96.9 -87.5 95.3 -87.5 L 95.3 -87.5 L 95.3 -87.5 Q 93.7 -87.5 92.8 -87 L 92.8 -87 L 92.8 -87 Q 91.9 -86.5 91.1 -85.3 Z M 119.3 -84.2 L 119.3 -84.2 L 119.3 -84.2 Q 121.5 -87.3 124.8 -89.3 L 124.8 -89.3 L 124.8 -89.3 Q 128.1 -91.4 132.1 -91.4 L 132.1 -91.4 L 132.1 -91.4 Q 136.2 -91.4 138.1 -90.1 L 138.1 -90.1 L 150.6 -91.4 L 146.3 -66.8 L 146.3 -66.8 Q 144 -54.2 139.3 -49.3 L 139.3 -49.3 L 139.3 -49.3 Q 134.8 -44.6 125.9 -44.6 L 125.9 -44.6 L 125.9 -44.6 Q 119.2 -44.6 115.4 -46.7 L 115.4 -46.7 L 115.4 -46.7 Q 111.5 -48.9 111.5 -52.4 L 111.5 -52.4 L 111.5 -52.4 Q 111.5 -55 113.5 -56.5 L 113.5 -56.5 L 113.5 -56.5 Q 115.5 -58 118.6 -58 L 118.6 -58 L 118.6 -58 Q 121.3 -58 123.3 -56.8 L 123.3 -56.8 L 123.3 -56.8 Q 124.5 -56.2 125.1 -55.3 L 125.1 -55.3 L 125.1 -55.3 Q 123.6 -54 123.6 -51.9 L 123.6 -51.9 L 123.6 -51.9 Q 123.6 -49.1 126.2 -49.1 L 126.2 -49.1 L 126.2 -49.1 Q 130.5 -49.1 132.9 -59.2 L 132.9 -59.2 L 132.9 -59.2 Q 133.6 -62 134.2 -64.7 L 134.2 -64.7 L 134.2 -64.7 Q 131.3 -61.2 124.8 -61.2 L 124.8 -61.2 L 124.8 -61.2 Q 120.2 -61.2 117.6 -63.4 L 117.6 -63.4 L 117.6 -63.4 Q 115 -65.6 115 -70.7 L 115 -70.7 L 115 -70.7 Q 115 -73.9 116.1 -77.5 L 116.1 -77.5 L 116.1 -77.5 Q 117.2 -81.1 119.3 -84.2 Z M 127.7 -70.5 L 127.7 -70.5 L 127.7 -70.5 Q 127.7 -66.1 129.9 -66.1 L 129.9 -66.1 L 129.9 -66.1 Q 131.4 -66.1 132.9 -67.8 L 132.9 -67.8 L 132.9 -67.8 Q 134.1 -69.1 134.5 -71.1 L 134.5 -71.1 L 137.8 -87.6 L 137.8 -87.6 Q 137.5 -87.6 137.1 -87.8 L 137.1 -87.8 L 137.1 -87.8 Q 136.5 -88 135.7 -88 L 135.7 -88 L 135.7 -88 Q 131.8 -88 129.5 -81.6 L 129.5 -81.6 L 129.5 -81.6 Q 127.7 -76.6 127.7 -70.5 Z M 179.1 -68.3 L 179.1 -68.3 L 179.1 -68.3 Q 180.7 -67.2 180.7 -64.8 L 180.7 -64.8 L 180.7 -64.8 Q 180.7 -62.4 179.4 -60.8 L 179.4 -60.8 L 179.4 -60.8 Q 178.2 -59.3 176.2 -58.3 L 176.2 -58.3 L 176.2 -58.3 Q 172.1 -56.2 167.7 -56.2 L 167.7 -56.2 L 167.7 -56.2 Q 163.3 -56.2 160.7 -57.1 L 160.7 -57.1 L 160.7 -57.1 Q 158.1 -58.1 156.4 -59.9 L 156.4 -59.9 L 156.4 -59.9 Q 153 -63.3 153 -69.5 L 153 -69.5 L 153 -69.5 Q 153 -79.1 158.3 -85 L 158.3 -85 L 158.3 -85 Q 163.9 -91.4 173.7 -91.4 L 173.7 -91.4 L 173.7 -91.4 Q 179.8 -91.4 182.8 -88.8 L 182.8 -88.8 L 182.8 -88.8 Q 185 -86.9 185 -83.7 L 185 -83.7 L 185 -83.7 Q 185 -72.5 165.5 -72.5 L 165.5 -72.5 L 165.5 -72.5 Q 165.3 -70.8 165.3 -69.4 L 165.3 -69.4 L 165.3 -69.4 Q 165.3 -66.5 166.6 -65.3 L 166.6 -65.3 L 166.6 -65.3 Q 167.9 -64.2 170.3 -64.2 L 170.3 -64.2 L 170.3 -64.2 Q 172.8 -64.2 175.4 -65.3 L 175.4 -65.3 L 175.4 -65.3 Q 178 -66.5 179.1 -68.3 Z M 166 -75.2 L 166 -75.2 L 166 -75.2 Q 170.5 -75.2 173.2 -78 L 173.2 -78 L 173.2 -78 Q 175.8 -80.7 175.8 -85 L 175.8 -85 L 175.8 -85 Q 175.8 -86.5 175.2 -87.3 L 175.2 -87.3 L 175.2 -87.3 Q 174.7 -88.1 173.6 -88.1 L 173.6 -88.1 L 173.6 -88.1 Q 172.5 -88.1 171.6 -87.7 L 171.6 -87.7 L 171.6 -87.7 Q 170.7 -87.3 169.7 -85.9 L 169.7 -85.9 L 169.7 -85.9 Q 167.3 -82.7 166 -75.2 Z M 206.3 -79.9 L 206.3 -79.9 L 206.3 -79.9 Q 207.2 -82.3 207.2 -84.3 L 207.2 -84.3 L 207.2 -84.3 Q 207.2 -88.1 204.1 -88.1 L 204.1 -88.1 L 204.1 -88.1 Q 202.5 -88.1 201.2 -86.7 L 201.2 -86.7 L 201.2 -86.7 Q 199.9 -85.2 199.9 -83.4 L 199.9 -83.4 L 199.9 -83.4 Q 199.9 -82.1 200.9 -81.1 L 200.9 -81.1 L 200.9 -81.1 Q 202.4 -79.7 206.2 -77.4 L 206.2 -77.4 L 206.2 -77.4 Q 210 -75.1 211.4 -73.2 L 211.4 -73.2 L 211.4 -73.2 Q 212.8 -71.3 212.8 -68.7 L 212.8 -68.7 L 212.8 -68.7 Q 212.8 -66.1 211.6 -63.8 L 211.6 -63.8 L 211.6 -63.8 Q 210.3 -61.4 208.1 -59.7 L 208.1 -59.7 L 208.1 -59.7 Q 203.3 -56.2 195.6 -56.2 L 195.6 -56.2 L 195.6 -56.2 Q 191.5 -56.2 188.3 -58.3 L 188.3 -58.3 L 188.3 -58.3 Q 185.1 -60.4 185.1 -62.9 L 185.1 -62.9 L 185.1 -62.9 Q 185.1 -65.4 186.9 -66.9 L 186.9 -66.9 L 186.9 -66.9 Q 188.7 -68.4 191.4 -68.4 L 191.4 -68.4 L 191.4 -68.4 Q 194.1 -68.4 195.8 -67.4 L 195.8 -67.4 L 195.8 -67.4 Q 194.9 -65.2 194.9 -63.8 L 194.9 -63.8 L 194.9 -63.8 Q 194.9 -59.6 198.5 -59.6 L 198.5 -59.6 L 198.5 -59.6 Q 200 -59.6 201.1 -60.6 L 201.1 -60.6 L 201.1 -60.6 Q 202.1 -61.5 202.1 -63.2 L 202.1 -63.2 L 202.1 -63.2 Q 202.1 -66.5 196.6 -69.9 L 196.6 -69.9 L 196.6 -69.9 Q 192.1 -72.9 191.1 -74 L 191.1 -74 L 191.1 -74 Q 189.4 -76.1 189.4 -78.6 L 189.4 -78.6 L 189.4 -78.6 Q 189.4 -81.2 190.6 -83.6 L 190.6 -83.6 L 190.6 -83.6 Q 191.8 -86 194 -87.8 L 194 -87.8 L 194 -87.8 Q 198.7 -91.4 206.8 -91.4 L 206.8 -91.4 L 206.8 -91.4 Q 211 -91.4 213.5 -89.7 L 213.5 -89.7 L 213.5 -89.7 Q 215.9 -88 215.9 -85.2 L 215.9 -85.2 L 215.9 -85.2 Q 215.9 -82.4 214.2 -80.8 L 214.2 -80.8 L 214.2 -80.8 Q 212.5 -79.2 209.5 -79.2 L 209.5 -79.2 L 209.5 -79.2 Q 207.3 -79.2 206.3 -79.9 Z M 257.4 -78 L 270.3 -79.2 L 270.3 -79.2 Q 265.7 -69.1 265.7 -57.4 L 265.7 -57.4 L 265.7 -57.4 Q 264 -56.2 261.5 -56.2 L 261.5 -56.2 L 261.5 -56.2 Q 258.9 -56.2 257.3 -57.3 L 257.3 -57.3 L 257.3 -57.3 Q 255.7 -58.5 255.4 -59.7 L 255.4 -59.7 L 255.4 -59.7 Q 253.8 -58.1 251.2 -57.1 L 251.2 -57.1 L 251.2 -57.1 Q 248.6 -56.2 245.9 -56.2 L 245.9 -56.2 L 245.9 -56.2 Q 243.1 -56.2 240.7 -57.1 L 240.7 -57.1 L 240.7 -57.1 Q 238.3 -57.9 236.5 -59.9 L 236.5 -59.9 L 236.5 -59.9 Q 232.4 -64.3 232.4 -72.5 L 232.4 -72.5 L 232.4 -72.5 Q 232.4 -85.3 239.2 -93 L 239.2 -93 L 239.2 -93 Q 246.3 -101 258.7 -101 L 258.7 -101 L 258.7 -101 Q 267.4 -101 270.4 -96.5 L 270.4 -96.5 L 270.4 -96.5 Q 271.4 -95.1 271.4 -93.4 L 271.4 -93.4 L 271.4 -93.4 Q 271.4 -91.7 270.7 -90.2 L 270.7 -90.2 L 270.7 -90.2 Q 269.9 -88.8 268.8 -87.6 L 268.8 -87.6 L 268.8 -87.6 Q 266 -85.1 262.6 -85.1 L 262.6 -85.1 L 262.6 -85.1 Q 261.3 -85.1 260 -85.5 L 260 -85.5 L 260 -85.5 Q 260.3 -87.5 260.3 -89.7 L 260.3 -89.7 L 260.3 -89.7 Q 260.3 -91.9 260.1 -93 L 260.1 -93 L 260.1 -93 Q 259.9 -94 259.6 -94.8 L 259.6 -94.8 L 259.6 -94.8 Q 258.7 -96.5 256.9 -96.5 L 256.9 -96.5 L 256.9 -96.5 Q 255.1 -96.5 253.1 -94.6 L 253.1 -94.6 L 253.1 -94.6 Q 251.1 -92.6 249.5 -89.4 L 249.5 -89.4 L 249.5 -89.4 Q 245.9 -82.3 245.9 -73.6 L 245.9 -73.6 L 245.9 -73.6 Q 245.9 -69.7 247.5 -66.8 L 247.5 -66.8 L 247.5 -66.8 Q 249.1 -63.8 252.1 -63.8 L 252.1 -63.8 L 252.1 -63.8 Q 253.1 -63.8 254 -64.3 L 254 -64.3 L 254 -64.3 Q 255 -64.8 255.3 -65.2 L 255.3 -65.2 L 257.4 -78 Z M 276.2 -59.4 L 276.2 -59.4 L 276.2 -59.4 Q 274.7 -61 274.1 -63.6 L 274.1 -63.6 L 274.1 -63.6 Q 273.4 -66.3 273.4 -70.6 L 273.4 -70.6 L 273.4 -70.6 Q 273.4 -74.8 274.9 -78.7 L 274.9 -78.7 L 274.9 -78.7 Q 276.3 -82.7 279 -85.5 L 279 -85.5 L 279 -85.5 Q 284.5 -91.4 293.6 -91.4 L 293.6 -91.4 L 293.6 -91.4 Q 296.9 -91.4 299.2 -90.3 L 299.2 -90.3 L 310.2 -91.4 L 305.5 -66.4 L 305.5 -66.4 Q 305.3 -65.6 305.3 -64.2 L 305.3 -64.2 L 305.3 -64.2 Q 305.3 -62.8 306.1 -61.9 L 306.1 -61.9 L 306.1 -61.9 Q 307 -61 308.3 -60.9 L 308.3 -60.9 L 308.3 -60.9 Q 307.6 -58.7 305.3 -57.4 L 305.3 -57.4 L 305.3 -57.4 Q 303 -56.2 300.3 -56.2 L 300.3 -56.2 L 300.3 -56.2 Q 297.7 -56.2 295.9 -57.1 L 295.9 -57.1 L 295.9 -57.1 Q 294.2 -58.1 293.7 -59.8 L 293.7 -59.8 L 293.7 -59.8 Q 292.7 -58.2 290.5 -57.2 L 290.5 -57.2 L 290.5 -57.2 Q 288.3 -56.2 285.4 -56.2 L 285.4 -56.2 L 285.4 -56.2 Q 282.5 -56.2 280.1 -56.9 L 280.1 -56.9 L 280.1 -56.9 Q 277.7 -57.7 276.2 -59.4 Z M 289.7 -85.3 L 289.7 -85.3 L 289.7 -85.3 Q 289 -84.2 288.4 -82.2 L 288.4 -82.2 L 288.4 -82.2 Q 287.7 -80.3 286.7 -75.1 L 286.7 -75.1 L 286.7 -75.1 Q 285.6 -69.9 285.6 -66.1 L 285.6 -66.1 L 285.6 -66.1 Q 285.6 -62.4 286.2 -61.3 L 286.2 -61.3 L 286.2 -61.3 Q 286.8 -60.3 287.8 -60.3 L 287.8 -60.3 L 287.8 -60.3 Q 289.8 -60.3 291.3 -62.2 L 291.3 -62.2 L 291.3 -62.2 Q 292.8 -64.2 293.4 -67.6 L 293.4 -67.6 L 296.8 -86.4 L 296.8 -86.4 Q 295.5 -87.5 293.9 -87.5 L 293.9 -87.5 L 293.9 -87.5 Q 292.3 -87.5 291.4 -87 L 291.4 -87 L 291.4 -87 Q 290.5 -86.5 289.7 -85.3 Z M 328.9 -61 L 328.9 -61 L 328.9 -61 Q 327 -56.2 320.6 -56.2 L 320.6 -56.2 L 320.6 -56.2 Q 317.4 -56.2 315.4 -58.4 L 315.4 -58.4 L 315.4 -58.4 Q 313.7 -60.3 313.7 -62.4 L 313.7 -62.4 L 313.7 -62.4 Q 313.7 -67.2 315.9 -77.7 L 315.9 -77.7 L 320.6 -102.2 L 333.6 -103.5 L 327.4 -71.1 L 327.4 -71.1 Q 326.3 -66.4 326.3 -64.7 L 326.3 -64.7 L 326.3 -64.7 Q 326.3 -61.1 328.9 -61 Z M 349.7 -61 L 349.7 -61 L 349.7 -61 Q 347.7 -56.2 341.4 -56.2 L 341.4 -56.2 L 341.4 -56.2 Q 338.2 -56.2 336.1 -58.4 L 336.1 -58.4 L 336.1 -58.4 Q 334.4 -60.3 334.4 -62.4 L 334.4 -62.4 L 334.4 -62.4 Q 334.4 -67.2 336.7 -77.7 L 336.7 -77.7 L 341.4 -102.2 L 354.3 -103.5 L 348.1 -71.1 L 348.1 -71.1 Q 347.1 -66.4 347.1 -64.7 L 347.1 -64.7 L 347.1 -64.7 Q 347.1 -61.1 349.7 -61 Z M 381 -68.3 L 381 -68.3 L 381 -68.3 Q 382.6 -67.2 382.6 -64.8 L 382.6 -64.8 L 382.6 -64.8 Q 382.6 -62.4 381.4 -60.8 L 381.4 -60.8 L 381.4 -60.8 Q 380.2 -59.3 378.2 -58.3 L 378.2 -58.3 L 378.2 -58.3 Q 374.1 -56.2 369.7 -56.2 L 369.7 -56.2 L 369.7 -56.2 Q 365.3 -56.2 362.7 -57.1 L 362.7 -57.1 L 362.7 -57.1 Q 360.1 -58.1 358.4 -59.9 L 358.4 -59.9 L 358.4 -59.9 Q 355 -63.3 355 -69.5 L 355 -69.5 L 355 -69.5 Q 355 -79.1 360.2 -85 L 360.2 -85 L 360.2 -85 Q 365.9 -91.4 375.7 -91.4 L 375.7 -91.4 L 375.7 -91.4 Q 381.7 -91.4 384.7 -88.8 L 384.7 -88.8 L 384.7 -88.8 Q 387 -86.9 387 -83.7 L 387 -83.7 L 387 -83.7 Q 387 -72.5 367.5 -72.5 L 367.5 -72.5 L 367.5 -72.5 Q 367.3 -70.8 367.3 -69.4 L 367.3 -69.4 L 367.3 -69.4 Q 367.3 -66.5 368.6 -65.3 L 368.6 -65.3 L 368.6 -65.3 Q 369.9 -64.2 372.3 -64.2 L 372.3 -64.2 L 372.3 -64.2 Q 374.8 -64.2 377.4 -65.3 L 377.4 -65.3 L 377.4 -65.3 Q 379.9 -66.5 381 -68.3 Z M 368 -75.2 L 368 -75.2 L 368 -75.2 Q 372.5 -75.2 375.1 -78 L 375.1 -78 L 375.1 -78 Q 377.8 -80.7 377.8 -85 L 377.8 -85 L 377.8 -85 Q 377.8 -86.5 377.2 -87.3 L 377.2 -87.3 L 377.2 -87.3 Q 376.7 -88.1 375.6 -88.1 L 375.6 -88.1 L 375.6 -88.1 Q 374.5 -88.1 373.6 -87.7 L 373.6 -87.7 L 373.6 -87.7 Q 372.7 -87.3 371.7 -85.9 L 371.7 -85.9 L 371.7 -85.9 Q 369.3 -82.7 368 -75.2 Z M 409.2 -75.4 L 409.2 -75.4 L 409.2 -75.4 Q 411.5 -79.5 411.5 -83.7 L 411.5 -83.7 L 411.5 -83.7 Q 411.5 -86.4 409.5 -86.4 L 409.5 -86.4 L 409.5 -86.4 Q 408 -86.4 406.4 -83.8 L 406.4 -83.8 L 406.4 -83.8 Q 404.7 -81.2 404.2 -77.8 L 404.2 -77.8 L 400.9 -57.4 L 387.6 -56.2 L 394.2 -90.1 L 404.7 -91.4 L 403.6 -84.9 L 403.6 -84.9 Q 406.7 -91.4 413.7 -91.4 L 413.7 -91.4 L 413.7 -91.4 Q 417.5 -91.4 419.5 -89.4 L 419.5 -89.4 L 419.5 -89.4 Q 421.5 -87.5 421.5 -83.6 L 421.5 -83.6 L 421.5 -83.6 Q 421.5 -79.6 418.9 -77.1 L 418.9 -77.1 L 418.9 -77.1 Q 416.3 -74.7 411.9 -74.7 L 411.9 -74.7 L 411.9 -74.7 Q 410 -74.7 409.2 -75.4 Z M 442.9 -64.7 L 442.9 -64.7 L 442.9 -64.7 Q 439.5 -61.2 433.5 -61.2 L 433.5 -61.2 L 433.5 -61.2 Q 425.8 -61.2 424.2 -66.8 L 424.2 -66.8 L 424.2 -66.8 Q 423.7 -68.4 423.7 -70.3 L 423.7 -70.3 L 423.7 -70.3 Q 423.7 -72.2 424.1 -74.1 L 424.1 -74.1 L 427.1 -90.1 L 440.1 -91.4 L 436.6 -72.7 L 436.6 -72.7 Q 436.5 -71.9 436.3 -71 L 436.3 -71 L 436.3 -71 Q 436.1 -70.1 436.1 -69.2 L 436.1 -69.2 L 436.1 -69.2 Q 436.1 -68.3 436.4 -67.6 L 436.4 -67.6 L 436.4 -67.6 Q 436.7 -67 437.2 -66.7 L 437.2 -66.7 L 437.2 -66.7 Q 437.9 -66.1 439.3 -66.1 L 439.3 -66.1 L 439.3 -66.1 Q 440.7 -66.1 441.9 -67.8 L 441.9 -67.8 L 441.9 -67.8 Q 443.1 -69.5 443.6 -72.3 L 443.6 -72.3 L 447.1 -90.1 L 459.8 -91.4 L 455 -66.2 L 455 -66.2 Q 452.6 -53.9 447.7 -49.1 L 447.7 -49.1 L 447.7 -49.1 Q 445.2 -46.6 442 -45.6 L 442 -45.6 L 442 -45.6 Q 438.8 -44.6 434.6 -44.6 L 434.6 -44.6 L 434.6 -44.6 Q 427.9 -44.6 424 -46.7 L 424 -46.7 L 424 -46.7 Q 420.2 -48.8 420.2 -52.3 L 420.2 -52.3 L 420.2 -52.3 Q 420.2 -54.9 422.2 -56.4 L 422.2 -56.4 L 422.2 -56.4 Q 424.2 -57.9 427.2 -57.9 L 427.2 -57.9 L 427.2 -57.9 Q 429.9 -57.9 432 -56.8 L 432 -56.8 L 432 -56.8 Q 433.2 -56.1 433.8 -55.2 L 433.8 -55.2 L 433.8 -55.2 Q 432.3 -53.9 432.3 -51.8 L 432.3 -51.8 L 432.3 -51.8 Q 432.3 -49 434.9 -49 L 434.9 -49 L 434.9 -49 Q 439.1 -49 441.5 -58.7 L 441.5 -58.7 L 441.5 -58.7 Q 442.2 -61.6 442.9 -64.7 Z" fill="#ffffff"></path></g></g><style>text {
  font-size: 64px;
  font-family: Arial Black;
  dominant-baseline: central;
  text-anchor: middle;
}</style></svg>